# xmcd
#
# Track frame offsets:
#	150
#	19822
#	35810
#	56300
#	74367
#	88462
#	107165
#
# Disc length: 1929 seconds
#
# Revision: 1
# Processed by: cddbd v1.5.2PL0 Copyright (c) Steve Scherf et al.
# Submitted via: audiograbber 1.83.01
#
DISCID=60078707
DTITLE=Andi Valandi and Band - Krautblues
DYEAR=2017
DGENRE=Blues
TTITLE0=Herr Lehmann
TTITLE1=Lass mich allein
TTITLE2=Muddi
TTITLE3=Unten am Fluss
TTITLE4=Kippe im Mund
TTITLE5=Underground im Altersheim
TTITLE6=Feierabendblues
EXTD=
EXTT0=
EXTT1=
EXTT2=
EXTT3=
EXTT4=
EXTT5=
EXTT6=
PLAYORDER=
